<svg width="18" height="18" fill="none" xmlns="http://www.w3.org/2000/svg"><path d="M17.868 16.464l-4.256-4.247c-.105-.07-.21-.14-.316-.14h-.458a7.343 7.343 0 001.794-4.775C14.632 3.3 11.326 0 7.316 0 3.271 0 0 3.3 0 7.302c0 4.037 3.271 7.302 7.316 7.302 1.83 0 3.482-.667 4.784-1.756v.457c0 .105.035.21.105.316l4.256 4.247c.176.176.457.176.598 0l.81-.807c.175-.14.175-.421 0-.597zM7.316 12.92a5.594 5.594 0 01-5.628-5.617 5.616 5.616 0 015.628-5.617c3.095 0 5.628 2.528 5.628 5.617a5.616 5.616 0 01-5.628 5.617z" fill="#311746"/></svg>