<svg width="54" height="21" fill="none" xmlns="http://www.w3.org/2000/svg"><path d="M16.284 16.256c2.688 0 4.285-2.102 4.285-5.661 0-1.34-.257-2.469-.747-3.34-.71-1.355-1.934-2.088-3.48-2.088-2.3 0-3.925 1.546-3.925 3.714 0 2.036 1.465 3.515 3.479 3.515 1.238 0 2.241-.578 2.74-1.582h.124c0 2.417-.916 3.86-2.461 3.86-.909 0-1.612-.498-1.853-1.296h-1.883c.315 1.736 1.787 2.878 3.721 2.878zm.066-5.361c-1.216 0-2.08-.864-2.08-2.073 0-1.179.908-2.08 2.087-2.08 1.18 0 2.088.916 2.088 2.11 0 1.179-.887 2.043-2.095 2.043zm7.237 3.984c.695 0 1.172-.498 1.172-1.157 0-.666-.477-1.157-1.172-1.157-.689 0-1.172.49-1.172 1.157 0 .66.483 1.157 1.172 1.157zm0-5.493c.695 0 1.172-.49 1.172-1.15 0-.666-.477-1.157-1.172-1.157-.689 0-1.172.49-1.172 1.157 0 .66.483 1.15 1.172 1.15zM31.76 16h1.809v-1.97h1.428v-1.597H33.57V5.431h-2.666c-1.868 2.813-3.355 5.164-4.307 6.914v1.685h5.164V16zm-3.413-3.633a79.58 79.58 0 013.34-5.398h.102v5.508h-3.442v-.11zM39.027 16h1.89V5.431h-1.883l-2.761 1.934V9.18l2.63-1.846h.124V16z" fill="#000"/></svg>